# xmcd
#
# Track frame offsets: 
#        150
#        13581
#        30532
#        48008
#        59934
#        75555
#        92772
#        106226
#        115680
#        130872
#        148845
#        169061
#
# Disc length: 2581 seconds
#
# Revision: 0
# Processed by: cddbd v1.5.2PL0 Copyright (c) Steve Scherf et al.
# Submitted via: ExactAudioCopy v0.99pb5
#
DISCID=990a130c
DTITLE=The Grassmasters - Stones Grass
DYEAR=2005
DGENRE=Bluegrass
TTITLE0=Sittin' On A Fence
TTITLE1=Brown Sugar
TTITLE2=Paint It Black
TTITLE3=Ruby Tuesday
TTITLE4=19th Nervous Breakdown
TTITLE5=Angie
TTITLE6=2000 Man
TTITLE7=Play With Fire
TTITLE8=The Spider And The Fly
TTITLE9=Dead Flowers
TTITLE10=Cool Calm and Collected
TTITLE11=Wild Horses
EXTD=
EXTT0=
EXTT1=
EXTT2=
EXTT3=
EXTT4=
EXTT5=
EXTT6=
EXTT7=
EXTT8=
EXTT9=
EXTT10=
EXTT11=
PLAYORDER=
